<svg preserveAspectRatio="none" width="100%" height="100%" overflow="visible" style="display: block;" viewBox="0 0 39.9919 39.9919" fill="none" xmlns="http://www.w3.org/2000/svg">
<g id="Radio">
<path id="Vector" d="M8.165 31.8269C1.66633 25.3282 1.66633 14.6637 8.165 8.165" stroke="var(--stroke-0, #364153)" stroke-width="3.33265" stroke-linecap="round" stroke-linejoin="round"/>
<path id="Vector_2" d="M12.9974 26.9945C9.1648 23.162 9.1648 16.8299 12.9974 12.8307" stroke="var(--stroke-0, #364153)" stroke-width="3.33265" stroke-linecap="round" stroke-linejoin="round"/>
<path id="Vector_3" d="M19.9959 23.3286C21.8365 23.3286 23.3286 21.8365 23.3286 19.9959C23.3286 18.1554 21.8365 16.6633 19.9959 16.6633C18.1554 16.6633 16.6633 18.1554 16.6633 19.9959C16.6633 21.8365 18.1554 23.3286 19.9959 23.3286Z" stroke="var(--stroke-0, #364153)" stroke-width="3.33265" stroke-linecap="round" stroke-linejoin="round"/>
<path id="Vector_4" d="M26.9941 12.9973C30.8267 16.8299 30.8267 23.1619 26.9941 27.1611" stroke="var(--stroke-0, #364153)" stroke-width="3.33265" stroke-linecap="round" stroke-linejoin="round"/>
<path id="Vector_5" d="M31.8271 8.16504C38.3258 14.6637 38.3258 25.1616 31.8271 31.6603" stroke="var(--stroke-0, #364153)" stroke-width="3.33265" stroke-linecap="round" stroke-linejoin="round"/>
</g>
</svg>
