<svg width="24" height="24" viewBox="0 0 24 24" fill="none" xmlns="http://www.w3.org/2000/svg">
<path d="M18.9965 16.9965H20.9961C21.596 16.9965 21.9959 16.5966 21.9959 15.9967V12.9973C21.9959 12.0975 21.2961 11.2977 20.4962 11.0977C18.6966 10.5978 15.9972 9.99792 15.9972 9.99792C15.9972 9.99792 14.6974 8.59821 13.7976 7.69839C13.2977 7.29847 12.6978 6.99854 11.998 6.99854H4.99939C4.39951 6.99854 3.89961 7.39845 3.59967 7.89835L2.19996 10.7978C2.06757 11.1839 2 11.5893 2 11.9975V15.9967C2 16.5966 2.39992 16.9965 2.9998 16.9965H4.99939" fill="#0A0A0A"/>
<path d="M18.9965 16.9965H20.9961C21.596 16.9965 21.9959 16.5966 21.9959 15.9967V12.9973C21.9959 12.0975 21.2961 11.2977 20.4962 11.0977C18.6966 10.5978 15.9972 9.99792 15.9972 9.99792C15.9972 9.99792 14.6974 8.59821 13.7976 7.69839C13.2977 7.29847 12.6978 6.99854 11.998 6.99854H4.99939C4.39951 6.99854 3.89961 7.39845 3.59967 7.89835L2.19996 10.7978C2.06757 11.1839 2 11.5893 2 11.9975V15.9967C2 16.5966 2.39992 16.9965 2.9998 16.9965H4.99939" stroke="#0A0A0A" stroke-width="1.4" stroke-linecap="round" stroke-linejoin="round"/>
<path d="M6.99902 18.9968C8.10359 18.9968 8.99902 18.1014 8.99902 16.9968C8.99902 15.8923 8.10359 14.9968 6.99902 14.9968C5.89445 14.9968 4.99902 15.8923 4.99902 16.9968C4.99902 18.1014 5.89445 18.9968 6.99902 18.9968Z" fill="#0A0A0A" stroke="#0A0A0A" stroke-width="1.4" stroke-linecap="round" stroke-linejoin="round"/>
<path d="M8.99805 16.9966H14.9968" stroke="#0A0A0A" stroke-width="1.4" stroke-linecap="round" stroke-linejoin="round"/>
<path d="M16.9971 18.9968C18.1016 18.9968 18.9971 18.1014 18.9971 16.9968C18.9971 15.8923 18.1016 14.9968 16.9971 14.9968C15.8925 14.9968 14.9971 15.8923 14.9971 16.9968C14.9971 18.1014 15.8925 18.9968 16.9971 18.9968Z" fill="#0A0A0A" stroke="#0A0A0A" stroke-width="1.4" stroke-linecap="round" stroke-linejoin="round"/>
</svg>
