<svg preserveAspectRatio="none" width="100%" height="100%" overflow="visible" style="display: block;" viewBox="0 0 19.9959 19.9959" fill="none" xmlns="http://www.w3.org/2000/svg">
<g id="Share2" clip-path="url(#clip0_51_239)">
<path id="Vector" d="M14.9966 6.66549C16.377 6.66549 17.4961 5.54643 17.4961 4.166C17.4961 2.78556 16.377 1.6665 14.9966 1.6665C13.6161 1.6665 12.4971 2.78556 12.4971 4.166C12.4971 5.54643 13.6161 6.66549 14.9966 6.66549Z" stroke="var(--stroke-0, white)" stroke-width="1.66633" stroke-linecap="round" stroke-linejoin="round"/>
<path id="Vector_2" d="M4.99851 12.4975C6.37895 12.4975 7.49801 11.3785 7.49801 9.99803C7.49801 8.6176 6.37895 7.49854 4.99851 7.49854C3.61808 7.49854 2.49902 8.6176 2.49902 9.99803C2.49902 11.3785 3.61808 12.4975 4.99851 12.4975Z" stroke="var(--stroke-0, white)" stroke-width="1.66633" stroke-linecap="round" stroke-linejoin="round"/>
<path id="Vector_3" d="M14.9966 18.3295C16.377 18.3295 17.4961 17.2105 17.4961 15.8301C17.4961 14.4496 16.377 13.3306 14.9966 13.3306C13.6161 13.3306 12.4971 14.4496 12.4971 15.8301C12.4971 17.2105 13.6161 18.3295 14.9966 18.3295Z" stroke="var(--stroke-0, white)" stroke-width="1.66633" stroke-linecap="round" stroke-linejoin="round"/>
<path id="Vector_4" d="M7.15723 11.2559L12.8477 14.5719" stroke="var(--stroke-0, white)" stroke-width="1.66633" stroke-linecap="round" stroke-linejoin="round"/>
<path id="Vector_5" d="M12.8394 5.42383L7.15723 8.73982" stroke="var(--stroke-0, white)" stroke-width="1.66633" stroke-linecap="round" stroke-linejoin="round"/>
</g>
<defs>
<clipPath id="clip0_51_239">
<rect width="19.9959" height="19.9959" fill="white"/>
</clipPath>
</defs>
</svg>
