<svg preserveAspectRatio="none" width="100%" height="100%" overflow="visible" style="display: block;" viewBox="0 0 23.9951 23.9951" fill="none" xmlns="http://www.w3.org/2000/svg">
<g id="Compass">
<path id="Vector" d="M16.2371 7.75842L14.4334 13.1683C14.3353 13.4628 14.1699 13.7305 13.9504 13.95C13.7308 14.1695 13.4632 14.3349 13.1687 14.4331L7.75879 16.2367L9.56242 10.8268C9.66058 10.5323 9.82598 10.2647 10.0455 10.0451C10.265 9.82561 10.5326 9.66022 10.8272 9.56206L16.2371 7.75842Z" stroke="var(--stroke-0, #868686)" stroke-width="1.5" stroke-linecap="round" stroke-linejoin="round"/>
<path id="Vector_2" d="M11.998 21.9956C17.5197 21.9956 21.9959 17.5193 21.9959 11.9976C21.9959 6.47587 17.5197 1.99963 11.998 1.99963C6.47624 1.99963 2 6.47587 2 11.9976C2 17.5193 6.47624 21.9956 11.998 21.9956Z" stroke="var(--stroke-0, #868686)" stroke-width="1.5" stroke-linecap="round" stroke-linejoin="round"/>
</g>
</svg>
