<svg preserveAspectRatio="none" width="100%" height="100%" overflow="visible" style="display: block;" viewBox="0 0 39.9919 39.9919" fill="none" xmlns="http://www.w3.org/2000/svg">
<g id="Leaf">
<path id="Vector" d="M18.3296 33.3265C15.4036 33.3354 12.5812 32.2443 10.4221 30.2695C8.26295 28.2948 6.92487 25.5807 6.6732 22.6656C6.42153 19.7504 7.27467 16.8472 9.0634 14.5316C10.8521 12.2161 13.4458 10.6573 16.33 10.1646C25.8281 8.33164 28.3276 7.46515 31.6602 3.33265C33.3265 6.66531 34.9929 10.2979 34.9929 16.6633C34.9929 25.8281 27.0278 33.3265 18.3296 33.3265Z" stroke="var(--stroke-0, #364153)" stroke-width="3.33265" stroke-linecap="round" stroke-linejoin="round"/>
<path id="Vector_2" d="M3.33301 34.9928C3.33301 29.9938 6.41571 26.0613 11.798 24.9948C15.8305 24.195 19.9963 21.6622 21.6626 19.9958" stroke="var(--stroke-0, #364153)" stroke-width="3.33265" stroke-linecap="round" stroke-linejoin="round"/>
</g>
</svg>
