<svg preserveAspectRatio="none" width="100%" height="100%" overflow="visible" style="display: block;" viewBox="0 0 23.9951 23.9951" fill="none" xmlns="http://www.w3.org/2000/svg">
<g id="Compass">
<path id="Vector" d="M11.998 21.9954C17.5197 21.9954 21.9959 17.5192 21.9959 11.9975C21.9959 6.47575 17.5197 1.99951 11.998 1.99951C6.47624 1.99951 2 6.47575 2 11.9975C2 17.5192 6.47624 21.9954 11.998 21.9954Z" fill="var(--fill-0, #0A0A0A)"/>
<path id="Vector_2" d="M16.2371 7.7583L14.4334 13.1682C14.3353 13.4627 14.1699 13.7303 13.9504 13.9499C13.7308 14.1694 13.4632 14.3348 13.1687 14.4329L7.75879 16.2366L9.56242 10.8267C9.66058 10.5322 9.82598 10.2645 10.0455 10.045C10.265 9.82549 10.5326 9.6601 10.8272 9.56193L16.2371 7.7583Z" fill="var(--fill-0, #EBEBEB)"/>
</g>
</svg>
