<svg preserveAspectRatio="none" width="100%" height="100%" overflow="visible" style="display: block;" viewBox="0 0 23.9951 23.9951" fill="none" xmlns="http://www.w3.org/2000/svg">
<g id="Car">
<g id="Vector">
<path d="M18.9965 16.9965H20.9961C21.596 16.9965 21.9959 16.5966 21.9959 15.9967V12.9973C21.9959 12.0975 21.2961 11.2977 20.4962 11.0977C18.6966 10.5978 15.9972 9.99792 15.9972 9.99792C15.9972 9.99792 14.6974 8.59821 13.7976 7.69839C13.2977 7.29847 12.6978 6.99854 11.998 6.99854H4.99939C4.39951 6.99854 3.89961 7.39845 3.59967 7.89835L2.19996 10.7978C2.06757 11.1839 2 11.5893 2 11.9975V15.9967C2 16.5966 2.39992 16.9965 2.9998 16.9965H4.99939" fill="var(--fill-0, #0A0A0A)"/>
<path d="M18.9965 16.9965H20.9961C21.596 16.9965 21.9959 16.5966 21.9959 15.9967V12.9973C21.9959 12.0975 21.2961 11.2977 20.4962 11.0977C18.6966 10.5978 15.9972 9.99792 15.9972 9.99792C15.9972 9.99792 14.6974 8.59821 13.7976 7.69839C13.2977 7.29847 12.6978 6.99854 11.998 6.99854H4.99939C4.39951 6.99854 3.89961 7.39845 3.59967 7.89835L2.19996 10.7978C2.06757 11.1839 2 11.5893 2 11.9975V15.9967C2 16.5966 2.39992 16.9965 2.9998 16.9965H4.99939" stroke="var(--stroke-0, #0A0A0A)" stroke-width="1.4" stroke-linecap="round" stroke-linejoin="round"/>
</g>
<path id="Vector_2" d="M6.99898 18.9969C8.10355 18.9969 8.99898 18.1015 8.99898 16.9969C8.99898 15.8924 8.10355 14.9969 6.99898 14.9969C5.89441 14.9969 4.99898 15.8924 4.99898 16.9969C4.99898 18.1015 5.89441 18.9969 6.99898 18.9969Z" fill="var(--fill-0, #0A0A0A)" stroke="var(--stroke-0, #0A0A0A)" stroke-width="1.4" stroke-linecap="round" stroke-linejoin="round"/>
<g id="Vector_3">
</g>
<path id="Vector_4" d="M16.9969 18.9969C18.1015 18.9969 18.9969 18.1015 18.9969 16.9969C18.9969 15.8924 18.1015 14.9969 16.9969 14.9969C15.8924 14.9969 14.9969 15.8924 14.9969 16.9969C14.9969 18.1015 15.8924 18.9969 16.9969 18.9969Z" fill="var(--fill-0, #0A0A0A)" stroke="var(--stroke-0, #0A0A0A)" stroke-width="1.4" stroke-linecap="round" stroke-linejoin="round"/>
<path id="Line 1" d="M18.6529 4.57335L15.7129 4.57356L12.6672 4.57509L10.7344 6.89537L15.7127 12.2939L20.7926 6.89538L18.6529 4.57335Z" fill="var(--fill-0, #0A0A0A)" stroke="var(--stroke-0, #EBEBEB)" stroke-width="1.2" stroke-linecap="round"/>
<path id="Line 2" d="M14.1104 7.31055L15.6104 8.81055L17.1104 7.31055" stroke="var(--stroke-0, #EBEBEB)" stroke-linecap="square"/>
</g>
</svg>
