<svg preserveAspectRatio="none" width="100%" height="100%" overflow="visible" style="display: block;" viewBox="0 0 39.9919 39.9919" fill="none" xmlns="http://www.w3.org/2000/svg">
<g id="Speaker">
<path id="Vector" d="M29.9936 3.33276H9.99769C8.15712 3.33276 6.66504 4.82484 6.66504 6.66542V33.3267C6.66504 35.1672 8.15712 36.6593 9.99769 36.6593H29.9936C31.8342 36.6593 33.3263 35.1672 33.3263 33.3267V6.66542C33.3263 4.82484 31.8342 3.33276 29.9936 3.33276Z" stroke="var(--stroke-0, #364153)" stroke-width="3.33265" stroke-linecap="round" stroke-linejoin="round"/>
<path id="Vector_2" d="M19.9959 9.99796H20.0126" stroke="var(--stroke-0, #364153)" stroke-width="3.33265" stroke-linecap="round" stroke-linejoin="round"/>
<path id="Vector_3" d="M19.9964 29.9939C23.6775 29.9939 26.6617 27.0098 26.6617 23.3286C26.6617 19.6475 23.6775 16.6633 19.9964 16.6633C16.3152 16.6633 13.3311 19.6475 13.3311 23.3286C13.3311 27.0098 16.3152 29.9939 19.9964 29.9939Z" stroke="var(--stroke-0, #364153)" stroke-width="3.33265" stroke-linecap="round" stroke-linejoin="round"/>
<path id="Vector_4" d="M19.9959 23.3286H20.0126" stroke="var(--stroke-0, #364153)" stroke-width="3.33265" stroke-linecap="round" stroke-linejoin="round"/>
</g>
</svg>
