<svg preserveAspectRatio="none" width="100%" height="100%" overflow="visible" style="display: block;" viewBox="0 0 23.9951 23.9951" fill="none" xmlns="http://www.w3.org/2000/svg">
<g id="Gift">
<path id="Vector" d="M19.9956 7.99829H3.99882C3.44665 7.99829 2.99902 8.44592 2.99902 8.99809V10.9977C2.99902 11.5499 3.44665 11.9975 3.99882 11.9975H19.9956C20.5477 11.9975 20.9954 11.5499 20.9954 10.9977V8.99809C20.9954 8.44592 20.5477 7.99829 19.9956 7.99829Z" stroke="var(--stroke-0, #868686)" stroke-width="1.5" stroke-linecap="round" stroke-linejoin="round"/>
<path id="Vector_2" d="M11.9971 7.99829V20.9956" stroke="var(--stroke-0, #868686)" stroke-width="1.5" stroke-linecap="round" stroke-linejoin="round"/>
<path id="Vector_3" d="M18.9961 11.9976V18.9961C18.9961 19.5265 18.7855 20.0351 18.4105 20.4101C18.0355 20.7851 17.5269 20.9957 16.9965 20.9957H6.99858C6.46825 20.9957 5.95965 20.7851 5.58465 20.4101C5.20965 20.0351 4.99898 19.5265 4.99898 18.9961V11.9976" stroke="var(--stroke-0, #868686)" stroke-width="1.5" stroke-linecap="round" stroke-linejoin="round"/>
<path id="Vector_4" d="M7.49847 7.99837C6.83557 7.99837 6.19981 7.73503 5.73107 7.26629C5.26232 6.79754 4.99898 6.16179 4.99898 5.49888C4.99898 4.83597 5.26232 4.20022 5.73107 3.73147C6.19981 3.26273 6.83557 2.99939 7.49847 2.99939C8.46296 2.98259 9.40811 3.45056 10.2107 4.34228C11.0132 5.234 11.6359 6.50808 11.9976 7.99837C12.3592 6.50808 12.9819 5.234 13.7845 4.34228C14.587 3.45056 15.5322 2.98259 16.4966 2.99939C17.1595 2.99939 17.7953 3.26273 18.264 3.73147C18.7328 4.20022 18.9961 4.83597 18.9961 5.49888C18.9961 6.16179 18.7328 6.79754 18.264 7.26629C17.7953 7.73503 17.1595 7.99837 16.4966 7.99837" stroke="var(--stroke-0, #868686)" stroke-width="1.5" stroke-linecap="round" stroke-linejoin="round"/>
</g>
</svg>
